<?xml version="1.0" encoding="UTF-8"?>
<svg width="84px" height="84px" viewBox="0 0 84 84" version="1.1" xmlns="http://www.w3.org/2000/svg" xmlns:xlink="http://www.w3.org/1999/xlink">
    <!-- Generator: Sketch 52.5 (67469) - http://www.bohemiancoding.com/sketch -->
    <title>Path</title>
    <desc>Created with Sketch.</desc>
    <g id="Page-1" stroke="none" stroke-width="1" fill="none" fill-rule="evenodd" fill-opacity="0.5">
        <g id="实时通行信息2（人证不合一）" transform="translate(-1393.000000, -926.000000)" fill="#F8374F">
            <g id="分组-12" transform="translate(1335.000000, 846.000000)">
                <path d="M138.879171,151.657787 C141.587164,154.420461 141.550726,158.86469 138.79967,161.584119 C137.49619,162.871481 135.740549,163.596662 133.910376,163.599989 C132.057016,163.603315 130.279844,162.859838 128.976363,161.535884 L99.6256932,131.931531 L69.8129253,161.437752 C68.5127573,162.740084 66.7488352,163.471918 64.9103812,163.466928 C61.051284,163.42202 57.9573812,160.245195 58.0004441,156.368137 C58.0219756,154.536889 58.7540447,152.788803 60.0409625,151.489798 L89.8537303,121.98524 L60.4053407,92.0465717 C57.6609098,89.2905509 57.6609098,84.8230363 60.4053407,82.0670156 C63.1497717,79.3109948 67.5984991,79.3109948 70.34293,82.0670156 L99.7913196,112.005684 L129.604088,82.499463 C132.348518,79.7434422 136.797246,79.7434422 139.541677,82.499463 C142.286108,85.2554837 142.286108,89.7229983 139.541677,92.4790191 L109.563282,122.218096 L138.879171,151.657787 Z" id="Path"></path>
            </g>
        </g>
    </g>
</svg>